<?xml version="1.0" encoding="UTF-8" standalone="no"?>
        <svg 
    viewBox="2.5634765625 -85.9130859375 447.7294921875 57.3486328125"
    width="445.166015625"
    height="143.26171875"
   xmlns="http://www.w3.org/2000/svg"
   xmlns:svg="http://www.w3.org/2000/svg">
   <path d="M67.53-53.39L27.03-53.39L27.03-45.48L67.53-45.48L67.53-53.39ZM27.03-59.99L27.03-57.57L67.53-57.57L67.53-63.72L62.40-63.57L58.37-63.57Q51.86-63.57 50.32-66.03Q48.78-68.48 48.78-74.12L48.78-74.12L48.78-82.98L44.38-82.98Q44.09-78.88 42.59-74.67Q41.09-70.46 37.43-66.65Q33.76-62.84 27.03-59.99L27.03-59.99ZM20.73-119.38L20.73-119.38L43.51-110.67Q43.07-109.50 41.60-108.62Q40.14-107.74 37.65-108.03L37.65-108.03Q36.18-106.05 34.42-104.19Q32.67-102.32 30.76-100.49L30.76-100.49L58.67-100.49L66.58-110.38L64.97-116.09L33.91-116.09L32.52-120.26L61.67-120.26L66.43-128.98L80.57-120.12Q79.32-118.65 75.73-117.70Q72.14-116.75 68.12-116.38L68.12-116.38Q71.92-112.57 78.59-109.61Q85.25-106.64 93.02-105.18L93.02-105.18L93.02-123.27L113.23-113.96L120.12-113.96L130.22-123.93L149.71-106.35Q148.32-104.30 142.97-104.08L142.97-104.08Q140.19-99.17 136.23-92.58Q132.28-85.99 127.77-79.36Q123.27-72.73 118.95-67.68L118.95-67.68Q127.66-62.62 133.19-55.85Q138.72-49.07 141.36-41.78Q143.99-34.50 143.99-27.91L143.99-27.91Q143.99-16.19 138.61-9.19Q133.23-2.20 119.24-2.12L119.24-2.12Q119.24-6.52 118.69-11.61Q118.14-16.70 117.11-18.75L117.11-18.75Q115.58-21.46 111.33-22.78L111.33-22.78L111.33 8.57Q111.33 9.59 107.30 11.94Q103.27 14.28 96.31 14.28L96.31 14.28L93.02 14.28L93.02-23.88Q92.14-22.19 89.43-22.19L89.43-22.19L54.93-22.19Q54.57-20.73 54.20-19.37Q53.83-18.02 53.39-16.63L53.39-16.63Q64.38-16.26 71.19-13.59Q78.00-10.91 81.34-7.10Q84.67-3.30 85.07 0.59Q85.47 4.47 83.61 7.43Q81.74 10.40 78.19 11.39Q74.63 12.38 70.02 10.33L70.02 10.33Q67.46 4.39 62.37-1.83Q57.28-8.06 51.93-12.74L51.93-12.74Q49.00-6.59 43.36-1.61Q37.72 3.37 28.13 7.32Q18.53 11.28 3.74 14.28L3.74 14.28L2.56 12.30Q14.72 7.76 21.57 2.60Q28.42-2.56 31.57-8.72Q34.72-14.87 35.67-22.19L35.67-22.19L6.59-22.19L5.42-26.37L36.18-26.37Q36.47-29.88 36.55-33.54Q36.62-37.21 36.62-41.24L36.62-41.24L27.03-41.24L27.03-36.77Q27.03-35.96 23.33-34.31Q19.63-32.67 13.18-32.67L13.18-32.67L10.18-32.67L10.18-87.01L4.83-84.89L3.15-86.43Q8.86-92.14 13.55-101.22Q18.24-110.30 20.73-119.38ZM67.53-35.82L67.53-41.24L56.69-41.24Q56.62-37.21 56.36-33.51Q56.10-29.81 55.66-26.37L55.66-26.37L65.99-26.37L73.54-36.04L70.53-35.82L67.53-35.82ZM31.20-87.16L31.20-96.31L25.78-96.31Q24.02-94.92 22.08-93.64Q20.14-92.36 18.16-91.19L18.16-91.19L28.49-87.16L31.20-87.16ZM48.78-96.31L44.53-96.31L44.53-87.16L48.78-87.16L48.78-96.31ZM73.54-96.31L61.82-96.31L61.82-87.16L66.87-87.16L74.12-95.43L73.54-96.31ZM78.88-36.77L78.88-36.77Q81.52-34.72 85.58-31.42Q89.65-28.13 93.02-25.20L93.02-25.20L93.02-97.63Q90.75-95.73 88.92-93.31Q87.08-90.89 86.13-88.18L86.13-88.18L90.75-84.59Q89.94-83.57 88.70-82.87Q87.45-82.18 84.89-81.74L84.89-81.74L84.89-39.62Q84.89-38.45 78.88-36.77ZM27.03-82.98L27.03-64.23Q29.74-68.48 30.40-73.24Q31.05-78.00 31.20-82.98L31.20-82.98L27.03-82.98ZM67.53-82.98L61.82-82.98L61.82-77.12Q61.82-75.15 62.99-75.15L62.99-75.15L64.23-75.15Q64.45-75.15 64.75-75.15Q65.04-75.15 65.41-75.15L65.41-75.15L67.53-75.29L67.53-82.98ZM121.66-109.79L121.66-109.79L111.33-109.79L111.33-24.90L119.09-24.90Q121.00-24.90 122.09-25.63L122.09-25.63Q123.56-26.66 124.40-28.60Q125.24-30.54 125.24-33.91L125.24-33.91Q125.24-42.11 122.97-50.94Q120.70-59.77 115.06-67.24L115.06-67.24Q116.24-72.51 117.52-80.05Q118.80-87.60 119.90-95.51Q121.00-103.42 121.66-109.79ZM250.49-87.01L241.04-87.01L230.42-87.01L230.42-77.42Q237.74-74.78 241.88-71.56Q246.02-68.33 247.78-64.97L247.78-64.97Q248.73-70.46 249.32-75.99Q249.90-81.52 250.49-87.01L250.49-87.01ZM162.01 0L151.83-22.92Q155.05-24.10 159.45-25.93Q163.84-27.76 168.90-30.18L168.90-30.18L168.90-65.84L155.42-65.84L154.17-70.02L168.90-70.02L168.90-108.33L154.98-108.33L153.74-112.50L184.94-112.50L194.09-126.42Q194.09-126.42 196.84-123.89Q199.58-121.36 203.28-117.81Q206.98-114.26 209.84-111.18L209.84-111.18L209.84-128.83L236.28-126.27Q236.06-124.58 234.92-123.41Q233.79-122.24 230.42-121.80L230.42-121.80L230.42-93.02L236.43-103.49Q236.43-103.49 238.26-101.55Q240.09-99.61 242.61-96.75Q245.14-93.90 247.34-91.19L247.34-91.19L252.61-91.19L252.61-128.69L279.13-126.12Q278.91-124.44 277.84-123.34Q276.78-122.24 273.63-121.80L273.63-121.80L273.63-91.19L275.24-91.19L283.52-104.88Q283.52-104.88 285.06-103.34Q286.60-101.81 288.94-99.39Q291.28-96.97 293.74-94.30Q296.19-91.63 298.02-89.43L298.02-89.43Q297.36-87.01 293.99-87.01L293.99-87.01L276.42-87.01Q278.47-76.83 281.95-67.16Q285.42-57.50 289.97-49.48Q294.51-41.46 299.71-36.18L299.71-36.18L299.56-34.50Q293.33-29.88 290.04-23.73Q286.74-17.58 285.57-9.59L285.57-9.59Q281.25-19.12 278.83-31.82Q276.42-44.53 275.28-58.48Q274.15-72.44 273.63-85.62L273.63-85.62L273.63 6.88Q273.63 7.98 271.00 9.67Q268.36 11.35 264.44 12.74Q260.52 14.14 256.64 14.14L256.64 14.14L252.61 14.14L252.61-33.91Q244.63-21.02 232.62-10.18L232.62-10.18L230.86-11.72Q235.77-20.14 239.32-30.29Q242.87-40.43 245.21-51.42L245.21-51.42Q242.87-49.88 239.72-50.21Q236.57-50.54 233.57-53.54L233.57-53.54Q233.86-58.37 232.91-63.50Q231.96-68.63 230.42-73.02L230.42-73.02L230.42 6.74Q230.42 7.76 227.86 9.48Q225.29 11.21 221.45 12.56Q217.60 13.92 213.57 13.92L213.57 13.92L209.84 13.92L209.84-30.62Q205.44-23.73 200.10-17.54Q194.75-11.35 188.23-5.71L188.23-5.71L186.47-7.18Q191.53-15.38 195.19-25.09Q198.85-34.79 201.42-45.48L201.42-45.48Q195.41-37.43 186.55-27.03Q177.69-16.63 165.45-5.27L165.45-5.27Q165.23-3.81 164.36-2.23Q163.48-0.66 162.01 0L162.01 0ZM195.12-87.01L193.95-91.19L209.84-91.19L209.84-110.08Q209.25-108.33 206.25-108.33L206.25-108.33L189.18-108.33L189.18-72.73L195.12-82.76Q195.12-82.76 196.91-80.93Q198.71-79.10 201.23-76.39Q203.76-73.68 206.10-70.97L206.10-70.97Q207.20-78.74 207.93-87.01L207.93-87.01L195.12-87.01ZM205.37-65.99L205.37-65.99L204.42-65.84L189.18-65.84L189.18-40.65Q192.41-42.48 195.67-44.38Q198.93-46.29 202.08-48.27L202.08-48.27Q203.03-52.59 203.83-57.06Q204.64-61.52 205.37-65.99ZM370.97-71.70L369.73-75.88L394.63-75.88L404.08-89.28Q404.08-89.28 405.83-87.78Q407.59-86.28 410.27-83.97Q412.94-81.67 415.83-79.03Q418.73-76.39 421.07-74.12L421.07-74.12Q420.41-71.70 416.82-71.70L416.82-71.70L370.97-71.70ZM355.08-50.10L353.69-54.27L413.09-54.27L422.53-64.97L442.68-49.80Q441.94-48.93 440.44-47.94Q438.94-46.95 436.38-46.36L436.38-46.36L436.38-20.07Q436.38-13.70 434.77-9.23Q433.15-4.76 427.95-2.12Q422.75 0.51 412.06 1.32L412.06 1.32Q411.84-3.37 411.36-6.77Q410.89-10.18 409.64-12.45L409.64-12.45Q408.40-14.50 406.38-16.04Q404.37-17.58 399.90-18.46L399.90-18.46L399.90-20.21Q399.90-20.21 402.47-20.10Q405.03-20.00 408.03-19.89Q411.04-19.78 412.35-19.78L412.35-19.78Q413.82-19.78 414.29-20.43Q414.77-21.09 414.77-22.34L414.77-22.34L414.77-50.10L396.46-50.10L396.46 9.74Q396.31 10.40 391.70 12.27Q387.08 14.14 378.74 14.14L378.74 14.14L374.71 14.14L374.71-50.10L355.08-50.10ZM401.07-116.09L401.07-116.09Q396.31-104.22 387.78-93.71Q379.25-83.20 368.23-74.82Q357.20-66.43 344.97-61.08L344.97-61.08L344.09-62.40Q345.78-63.72 347.39-65.30Q349.00-66.87 350.54-68.55L350.54-68.55L340.65-68.55L340.65-32.37L359.84-37.50L360.13-36.18Q353.61-30.54 342.66-22.27Q331.71-13.99 315.75-3.74L315.75-3.74Q314.72-0.44 311.72 0.59L311.72 0.59L302.42-23.07Q308.42-24.32 319.63-27.03L319.63-27.03L319.63-68.55L306.45-68.55L305.27-72.73L319.63-72.73L319.63-110.08L305.27-110.08L304.03-114.33L336.04-114.33L346.07-128.39Q346.07-128.39 347.90-126.82Q349.73-125.24 352.55-122.79Q355.37-120.34 358.41-117.59Q361.45-114.84 363.87-112.50L363.87-112.50Q363.43-110.08 359.69-110.08L359.69-110.08L340.65-110.08L340.65-75L347.24-86.13L356.84-75.73Q363.28-83.72 368.59-92.76Q373.90-101.81 377.42-110.67Q380.93-119.53 382.03-127.08L382.03-127.08L409.50-121.07Q409.06-119.60 407.70-118.84Q406.35-118.07 403.05-117.77L403.05-117.77Q407.30-109.13 414.73-103.13Q422.17-97.12 430.88-93.20Q439.60-89.28 447.73-86.87L447.73-86.87L447.58-84.89Q441.43-82.91 437.84-77.45Q434.25-72.00 433.37-65.99L433.37-65.99Q421.29-74.12 412.94-86.50Q404.59-98.88 401.07-116.09Z"/>
    </svg>
        