<svg width="266" height="266" version="1.1" xmlns="http://www.w3.org/2000/svg" xmlns:xlink="http://www.w3.org/1999/xlink"><path d="M236.21 125.77L237.80 127.37L235.94 128.96Q211.47 132.42 197.37 131.09L197.37 131.09Q195.51 131.09 194.45 130.82L194.45 130.82Q188.59 129.76 182.74 122.84L182.74 122.84Q166.78 104.76 136.19 61.40L136.19 61.40Q120.50 95.18 101.35 118.59L101.35 118.59Q84.59 139.07 72.35 139.60L72.35 139.60Q115.18 86.40 124.75 55.81L124.75 55.81Q130.87 36.93 125.82 24.69L125.82 24.69Q125.55 17.24 137.26 21.50L137.26 21.50Q146.57 25.22 150.02 30.28L150.02 30.28L144.44 41.18L139.38 54.48Q154.81 78.95 191.52 103.16L191.52 103.16Q215.73 119.12 236.21 125.77L236.21 125.77ZM144.44 133.75L144.44 133.75Q137.26 133.75 127.41 122.31L127.41 122.31Q120.50 114.33 120.50 108.75L120.50 108.75Q121.56 108.48 126.88 108.48L126.88 108.48L141.78 114.86Q148.96 118.85 148.96 126.04L148.96 126.04Q148.96 131.62 144.44 133.75ZM143.11 201.31L143.11 201.31Q155.61 208.50 156.94 209.56L156.94 209.56Q162.53 214.08 164.39 220.47L164.39 220.47Q167.05 229.51 165.98 232.70L165.98 232.70Q165.72 233.77 165.19 234.56L165.19 234.56Q164.65 236.96 159.60 236.96L159.60 236.96Q153.75 232.44 139.92 219.14L139.92 219.14L122.89 204.77Q119.97 201.85 117.84 199.19L117.84 199.19Q116.24 197.32 116.24 193.07L116.24 193.07Q117.57 192.00 136.72 198.92L136.72 198.92Q138.32 199.72 139.12 199.98L139.12 199.98L158.54 158.22Q158.54 151.84 150.29 152.64L150.29 152.64L146.57 152.90L109.59 170.99Q97.89 170.99 91.77 163.28L91.77 163.28L91.50 160.88L93.63 159.02Q111.19 159.02 138.05 147.05L138.05 147.05Q153.22 140.40 157.74 138.54L157.74 138.54Q169.71 138.80 184.07 148.91L184.07 148.91Q187.00 152.90 185.40 155.03Q183.81 157.16 174.23 164.87L174.23 164.87Q171.57 167.00 169.97 168.60L169.97 168.60Q167.58 171.26 149.23 193.87L149.23 193.87Q145.77 198.12 143.11 201.31ZM90.17 58.21L90.17 58.21Q90.17 61.40 86.72 62.73L86.72 62.73L58.79 71.51L58.25 71.51Q63.57 74.70 62.24 84.27L62.24 84.27Q61.71 88.80 61.71 90.13L61.71 90.13L61.71 106.09Q73.15 105.02 75.81 106.09L75.81 106.09Q78.47 106.88 80.33 108.75L80.33 108.75L79.53 111.67L61.45 119.12L60.91 119.39L59.32 156.63L61.45 156.63L79.53 148.38L82.99 148.91Q81.93 153.17 72.88 159.02L72.88 159.02L70.76 160.35L28.99 189.34Q26.60 192.54 13.30 184.56L13.30 184.56Q8.25 181.63 6.92 179.77L6.92 179.77Q6.92 174.98 9.58 174.18L9.58 174.18L22.61 171.26L47.35 161.68Q48.15 161.68 48.68 161.41L48.68 161.41L49.74 122.84Q29.26 128.43 25.27 122.05L25.27 122.05Q24.74 121.51 24.47 120.72L24.47 120.72Q25.54 120.18 47.35 112.47L47.35 112.47Q48.68 111.94 49.74 111.67L49.74 111.67Q49.74 88.80 49.21 85.07L49.21 85.07Q48.41 78.95 46.55 74.70L46.55 74.70Q37.51 76.29 30.86 74.70L30.86 74.70Q26.07 73.63 22.61 70.97L22.61 70.97Q22.88 69.38 25.80 68.05L25.80 68.05Q27.40 67.52 44.16 63.79L44.16 63.79Q47.35 62.99 50.01 62.20L50.01 62.20L69.16 54.75Q84.06 50.49 90.17 58.21Z" stroke="#000" fill="black" /></svg>