<svg width="266" height="266" version="1.1" xmlns="http://www.w3.org/2000/svg" xmlns:xlink="http://www.w3.org/1999/xlink"><path d="M239.40 166.52L241.79 169.18L240.20 170.51Q211.47 172.63 203.49 171.04L203.49 171.04Q198.44 169.44 170.24 125.02L170.24 125.02Q169.18 123.42 168.64 122.63L168.64 122.63L168.64 185.67L169.44 211.20Q168.64 226.10 162.79 231.69L162.79 231.69Q149.76 227.96 155.08 188.33L155.08 188.33Q158.27 164.39 158.27 163.06L158.27 163.06L158.00 122.36L158.00 122.09Q142.31 156.94 115.98 181.68L115.98 181.68L113.85 181.94Q112.52 180.88 114.91 177.16L114.91 177.16Q138.32 141.78 145.77 126.62L145.77 126.62Q152.95 111.45 156.41 97.36L156.41 97.36Q131.14 100.28 127.68 92.83L127.68 92.83Q130.07 90.71 154.55 85.65L154.55 85.65Q156.94 85.12 158.00 84.85L158.00 84.85Q158.00 82.99 157.74 58.52Q157.47 34.05 147.36 22.34L147.36 22.34Q147.36 19.68 150.82 18.09L150.82 18.09Q158.80 18.09 169.44 26.60L169.44 26.60Q169.97 26.87 170.24 27.40L170.24 27.40Q173.70 30.32 173.43 35.11L173.43 35.11L172.10 36.97Q169.18 47.88 168.64 75.54L168.64 75.54L168.38 81.13L187.80 75.81Q200.30 73.68 203.76 80.33L203.76 80.33Q203.76 83.52 201.10 84.32L201.10 84.32L168.64 93.63L168.38 111.72Q196.57 145.50 239.40 166.52L239.40 166.52ZM127.95 77.67L127.95 77.67Q127.95 82.46 107.20 87.51L107.20 87.51L105.07 88.05L103.47 116.24Q119.43 118.10 125.29 126.62L125.29 126.62L125.82 134.60L125.82 134.86Q122.89 139.12 106.67 123.96L106.67 123.96Q104.54 122.09 104.01 121.56L104.01 121.56L102.41 208.54Q102.41 214.13 96.29 219.18L96.29 219.18Q95.76 219.72 95.23 219.98L95.23 219.98Q90.44 216.52 87.51 205.09L87.51 205.09Q86.72 201.63 86.18 199.77L86.18 199.77L92.04 168.64Q92.83 163.86 92.83 159.33L92.83 159.33L93.90 121.56Q86.98 137.79 71.02 162.26L71.02 162.26Q54.53 186.73 47.35 186.73L47.35 186.73L47.08 186.20Q72.09 147.10 78.74 134.06L78.74 134.06Q90.44 111.72 95.23 91.77L95.23 91.77L77.67 93.37Q70.76 93.10 67.03 90.44L67.03 90.44Q67.30 88.31 90.97 82.46L90.97 82.46Q93.63 81.66 94.70 81.40L94.70 81.40L94.96 56.66Q93.90 41.23 86.98 32.98L86.98 32.98L86.72 30.59Q89.38 28.73 91.77 28.73L91.77 28.73Q95.76 28.73 106.93 36.97L106.93 36.97Q108.00 37.77 108.79 38.30L108.79 38.30Q111.19 39.90 111.19 42.29L111.19 42.29Q111.19 43.89 110.39 45.49L110.39 45.49Q105.07 59.05 105.07 76.87L105.07 76.87Q106.93 76.87 115.44 74.48L115.44 74.48Q121.56 72.62 127.95 77.67ZM73.95 65.17L73.95 65.17Q73.95 69.16 66.50 71.02L66.50 71.02L46.28 76.87Q50.27 78.74 52.14 81.13L52.14 81.13L51.34 109.33L62.51 109.33Q66.50 109.86 67.83 111.99L67.83 111.99Q67.83 116.24 53.47 120.23L53.47 120.23L51.34 120.76Q49.74 142.58 50.54 153.48L50.54 153.48Q59.05 148.16 60.38 147.63L60.38 147.63Q62.78 146.83 64.90 146.83L64.90 146.83Q63.31 152.42 36.97 174.76L36.97 174.76Q25.27 184.60 22.61 187.53L22.61 187.53Q19.15 187.53 7.18 183.81L7.18 183.81Q5.85 183.54 4.79 183.27L4.79 183.27Q2.93 181.94 2.93 177.42L2.93 177.42Q4.52 175.56 9.58 174.50L9.58 174.50Q11.17 174.23 12.24 173.70L12.24 173.70L40.43 158.80L40.43 125.29L23.94 127.15Q17.82 127.15 14.36 124.49L14.36 124.49Q14.90 122.89 19.95 121.30L19.95 121.30Q25.54 119.97 39.90 114.91L39.90 114.91Q39.90 92.57 37.24 79.80L37.24 79.80L36.44 79.27Q22.34 79.27 17.02 76.87L17.02 76.87Q15.96 76.08 14.63 75.28L14.63 75.28Q14.63 73.95 18.62 72.09L18.62 72.09Q27.40 71.02 48.15 65.17L48.15 65.17Q59.85 61.45 62.51 61.18L62.51 61.18Q65.97 60.65 69.96 62.51L69.96 62.51Q72.35 63.57 73.95 65.17Z" stroke="#000" fill="black" /></svg>