<svg width="266" height="266" version="1.1" xmlns="http://www.w3.org/2000/svg" xmlns:xlink="http://www.w3.org/1999/xlink"><path d="M100.55 64.40L100.55 64.40L99.48 64.40L99.48 61.47Q111.72 43.12 114.11 38.86L114.11 38.86Q115.18 36.73 115.98 34.60L115.98 34.60L115.98 29.02Q116.24 27.69 117.57 27.16L117.57 27.16Q122.36 25.56 131.94 32.74L131.94 32.74Q134.33 34.60 135.66 36.20L135.66 36.20Q136.19 37.26 136.19 37.80L136.19 37.80Q136.46 39.39 133 41.52L133 41.52Q118.90 48.70 100.55 64.40ZM192.32 178.51L189.66 175.85L190.99 174.52L211.20 177.18Q214.66 177.18 217.85 176.12L217.85 176.12Q228.76 162.82 212.27 142.60L212.27 142.60Q208.81 138.34 204.82 134.89L204.82 134.89L194.18 127.70Q192.32 126.37 192.32 123.45L192.32 123.45Q192.32 122.38 198.44 107.75L198.44 107.75Q203.49 95.25 203.49 88.34L203.49 88.34Q201.36 83.28 176.09 94.19L176.09 94.19Q173.17 105.89 173.17 133.02L173.17 133.02L172.37 226.66Q172.37 258.84 165.98 258.84L165.98 258.84L164.12 258.31L161.99 254.59Q160.40 213.09 159.33 98.71L159.33 98.71L152.95 82.48Q152.95 80.89 157.47 79.03L157.47 79.03Q166.25 79.03 174.76 85.94L174.76 85.94Q197.11 77.16 203.49 73.17L203.49 73.17Q204.55 72.64 205.35 71.84L205.35 71.84Q213.07 71.84 223.17 79.03L223.17 79.03Q230.36 84.35 230.09 88.87L230.09 88.87Q219.18 97.65 217.59 99.24L217.59 99.24Q216.26 100.57 215.19 102.17L215.19 102.17L205.62 114.40Q203.49 117.60 203.49 119.99L203.49 119.99Q203.49 122.92 213.60 131.69L213.60 131.69Q230.09 146.59 234.61 157.50L234.61 157.50Q237.27 164.15 237.27 170.80L237.27 170.80Q237.27 180.64 231.15 192.08L231.15 192.08Q226.37 201.12 220.78 201.12L220.78 201.12Q217.59 201.12 212.53 194.47L212.53 194.47Q211.20 192.61 210.41 191.81L210.41 191.81L192.32 178.51ZM87.25 49.50L87.25 49.50Q89.11 58.01 86.72 61.74L86.72 61.74Q85.65 63.07 84.06 63.07L84.06 63.07L79.80 62.00L79.53 62.00L61.18 41.25Q61.18 38.06 62.24 36.73L62.24 36.73Q80.07 40.72 87.25 49.50ZM133.53 92.06L147.36 101.64Q147.36 104.56 143.64 109.88L143.64 109.88Q142.84 111.48 142.31 112.81L142.31 112.81Q141.25 115.47 137.52 139.67L137.52 139.67Q134.06 162.55 128.48 164.94L128.48 164.94Q125.02 164.94 119.70 159.89L119.70 159.89Q118.64 158.83 117.84 158.29L117.84 158.29Q114.38 158.29 89.91 160.69L89.91 160.69L84.32 161.22Q91.77 162.55 99.48 172.66L99.48 172.66L98.69 175.58L126.08 171.59Q139.92 170.53 144.70 176.91L144.70 176.91Q144.70 179.57 142.84 180.37L142.84 180.37L94.70 184.63L93.10 184.89Q85.39 207.24 68.89 222.93L68.89 222.93Q49.48 241.29 30.32 236.23L30.32 236.23Q55.86 223.20 67.30 206.97L67.30 206.97Q73.15 198.73 77.94 187.29L77.94 187.29Q57.99 189.42 41.23 193.67L41.23 193.67L25.27 197.66Q24.74 197.66 23.94 197.66L23.94 197.66Q18.35 198.19 12.24 193.67L12.24 193.67Q9.04 191.54 7.45 189.15L7.45 189.15Q7.45 186.22 10.11 185.16L10.11 185.16Q11.44 184.63 31.39 184.36L31.39 184.36Q32.19 184.10 32.98 184.10L32.98 184.10Q51.34 183.30 79.27 179.04L79.27 179.04Q80.07 174.52 79.53 161.49L79.53 161.49Q78.47 162.02 69.96 162.82L69.96 162.82Q62.24 163.35 62.24 169.47L62.24 169.47Q61.18 171.33 57.46 169.20L57.46 169.20Q50.81 164.15 50.81 151.11L50.81 151.11Q50.81 117.60 42.56 105.09L42.56 105.09Q41.76 100.31 50.01 102.97L50.01 102.97Q53.20 104.30 54.80 105.36L54.80 105.36L72.62 102.43Q75.01 96.05 73.42 90.46L73.42 90.46Q72.35 85.94 68.63 83.02L68.63 83.02L47.35 85.68Q38.30 85.94 32.98 80.89L32.98 80.89Q32.98 78.49 35.38 77.96L35.38 77.96Q36.97 77.43 54.00 75.83L54.00 75.83Q54.80 75.57 55.59 75.57L55.59 75.57Q83.52 71.31 97.62 68.92L97.62 68.92L125.02 63.33Q125.55 63.07 126.08 63.07L126.08 63.07Q132.47 62.53 138.59 66.26L138.59 66.26Q140.98 67.59 143.37 69.72L143.37 69.72Q143.37 72.11 140.45 72.64L140.45 72.64Q138.32 73.44 111.19 76.37L111.19 76.37Q104.54 76.90 100.81 77.70L100.81 77.70Q105.34 79.29 106.93 81.42L106.93 81.42Q106.13 83.81 102.94 96.32L102.94 96.32L130.61 92.06Q132.20 92.06 133.53 92.06L133.53 92.06ZM95.49 97.38L95.49 97.38L93.90 84.61Q93.10 81.42 90.97 79.29L90.97 79.29L78.74 81.69Q85.92 83.02 83.79 92.06L83.79 92.06L82.46 99.77Q89.38 98.18 95.49 97.38ZM127.15 105.36L127.15 105.36Q122.36 98.71 106.13 102.17L106.13 102.17L102.68 102.97L102.68 114.14Q105.60 117.33 114.65 118.66L114.65 118.66Q119.97 119.46 120.50 122.38L120.50 122.38Q117.04 126.37 108.53 126.37L108.53 126.37Q96.29 126.37 94.70 118.13L94.70 118.13Q94.70 117.33 94.70 104.03L94.70 104.03L83.79 106.69Q80.86 108.02 79.53 110.41L79.53 110.41L78.74 114.94Q74.21 126.91 71.55 130.10L71.55 130.10Q69.69 132.49 67.03 133.82L67.03 133.82Q67.03 129.57 71.55 112.28L71.55 112.28Q72.09 110.15 72.35 108.55L72.35 108.55L57.72 112.01L63.57 156.17L98.95 149.78Q115.98 147.65 119.17 151.64L119.17 151.64Q125.29 143.40 127.15 108.82L127.15 108.82Q127.15 106.96 127.15 105.36ZM71.29 140.74L71.29 140.74L71.82 138.08Q74.21 138.08 94.16 134.35L94.16 134.35Q101.61 133.02 106.93 133.02L106.93 133.02Q110.66 134.35 110.92 135.95L110.92 135.95Q111.19 139.67 94.43 141.80L94.43 141.80Q77.94 143.93 71.29 140.74ZM134.06 231.98L134.06 231.98L130.87 231.18L101.35 201.92L101.61 197.66Q120.50 204.58 125.29 207.77L125.29 207.77Q135.93 214.15 136.99 222.40L136.99 222.40L136.72 228.52Q135.93 231.18 134.06 231.98Z" stroke="#000" fill="black" /></svg>