<?xml version="1.0" encoding="iso-8859-1"?>
<!-- Generator: Adobe Illustrator 19.0.0, SVG Export Plug-In . SVG Version: 6.00 Build 0)  -->
<svg version="1.1" id="Layer_1" xmlns="http://www.w3.org/2000/svg" xmlns:xlink="http://www.w3.org/1999/xlink" x="0px" y="0px"
	 viewBox="0 0 512 512" style="enable-background:new 0 0 512 512;" xml:space="preserve">
<path style="fill:#B3B3B3;" d="M497.661,280.563c11.343,27.571-4.927,58.838-34.084,65.061c-1.907,0.407-3.781,0.836-5.624,1.296
	c-49.573-104.886-78.708-148.996-116.048-146.8c-16.999,0.985-44.474,32.059-51.811,64.611
	c-15.317,68.028,27.4,22.473,77.936,138.392c-27.036,26.95-52.432,52.379-112.031,52.379s-84.995-25.429-112.031-52.379
	c50.537-115.919,93.254-70.363,77.936-138.392c-7.337-32.552-34.812-63.626-51.811-64.611c-37.34-2.196-66.475,41.914-116.048,146.8
	c-1.842-0.461-3.717-0.889-5.624-1.296c-29.157-6.223-45.427-37.49-34.084-65.061c17.138-41.635,47.827-96.21,99.809-133.957
	c26.275-19.088,58.002-33.88,96.167-40.521c14.31-2.496,29.521-3.845,45.684-3.845s31.374,1.35,45.684,3.845
	c38.165,6.641,69.892,21.434,96.167,40.521C449.835,184.353,480.523,238.928,497.661,280.563z M290.095,387.12
	c0-18.831-15.264-34.105-34.094-34.105s-34.094,15.275-34.094,34.105c0,18.831,15.264,34.094,34.094,34.094
	S290.095,405.951,290.095,387.12z"/>
<g>
	<path style="fill:#666666;" d="M414.948,65.424c11.761,16.271-17.095,81.182-17.095,81.182
		c-26.275-19.088-58.002-33.88-96.167-40.521l0.279-1.585C356.667,51.328,403.186,49.153,414.948,65.424z"/>
	<path style="fill:#666666;" d="M457.954,346.92c-44.367,10.872-67.696,34.052-89.922,56.203
		c-50.537-115.919-93.254-70.363-77.936-138.392c7.337-32.552,34.812-63.626,51.811-64.611
		C379.246,197.924,408.381,242.034,457.954,346.92z"/>
	<path style="fill:#666666;" d="M256.001,353.015c18.831,0,34.094,15.275,34.094,34.105c0,18.831-15.264,34.094-34.094,34.094
		s-34.094-15.264-34.094-34.094C221.906,368.29,237.17,353.015,256.001,353.015z"/>
	<path style="fill:#666666;" d="M221.906,264.732c15.317,68.028-27.4,22.473-77.936,138.392
		c-22.226-22.151-45.556-45.331-89.922-56.203c49.573-104.886,78.708-148.996,116.048-146.8
		C187.094,201.106,214.569,232.18,221.906,264.732z"/>
	<path style="fill:#666666;" d="M210.038,104.499l0.278,1.585c-38.165,6.641-69.892,21.434-96.167,40.521
		c0,0-28.857-64.911-17.095-81.182S155.335,51.328,210.038,104.499z"/>
</g>
<path d="M4.434,276.487c-6.649,16.158-5.787,34.293,2.361,49.751c8.097,15.361,22.454,26.245,39.393,29.861
	c1.887,0.402,3.605,0.798,5.302,1.222c0.013,0.003,0.027,0.008,0.04,0.011c41.541,10.188,63.572,32.144,84.877,53.376l0.153,0.153
	c27.298,27.212,55.527,55.352,119.44,55.352s92.141-28.14,119.44-55.352l0.152-0.152c21.299-21.226,43.323-43.176,84.885-53.378
	c0.007-0.002,0.015-0.004,0.021-0.005c0.017-0.004,0.033-0.009,0.05-0.013c1.652-0.413,3.373-0.81,5.264-1.214
	c16.938-3.615,31.296-14.499,39.392-29.86c8.148-15.46,9.009-33.593,2.36-49.754c-9.751-23.688-21.428-45.797-34.709-65.709
	c-3.282-4.921-9.932-6.247-14.855-2.968c-4.922,3.282-6.25,9.933-2.968,14.855c12.498,18.739,23.508,39.592,32.721,61.974
	c4.224,10.267,3.677,21.789-1.501,31.613c-4.71,8.937-12.764,15.465-22.345,18.24c-47.825-100.311-78.989-147.598-122.623-145.065
	c-15.537,0.901-29.948,15.629-37.157,24.328c-11.806,14.248-20.731,31.97-24.484,48.625c-8.818,39.163,0.312,48.326,18.593,62.389
	c13.749,10.576,34.235,26.357,56.99,75.979c-24.426,24.135-47.726,44.044-99.227,44.044s-74.801-19.909-99.227-44.044
	c22.754-49.622,43.24-65.403,56.99-75.979c18.281-14.063,27.411-23.227,18.592-62.392c-3.753-16.651-12.677-34.373-24.484-48.621
	c-7.208-8.699-21.62-23.427-37.147-24.327c-43.645-2.536-74.808,44.751-122.633,145.064c-9.581-2.775-17.634-9.306-22.344-18.242
	c-5.178-9.823-5.725-21.346-1.502-31.611c15.941-38.725,45.569-92.604,96.199-129.367c27.238-19.788,58.093-32.786,91.712-38.635
	c14.023-2.445,28.774-3.686,43.844-3.686s29.821,1.24,43.848,3.686c33.615,5.85,64.47,18.848,91.71,38.636
	c9.956,7.23,19.586,15.484,28.619,24.533c2.092,2.095,4.836,3.144,7.58,3.144c2.738,0,5.477-1.044,7.568-3.131
	c4.187-4.18,4.192-10.961,0.013-15.148c-7.758-7.772-15.935-15.002-24.378-21.589c2.705-6.646,6.622-16.798,10.068-27.753
	c11.743-37.336,7.108-49.945,2.601-56.181c-5.389-7.454-14.79-12.12-26.474-13.138c-28.297-2.472-65.57,15.617-100.212,48.469
	c-13.235-1.956-26.972-2.953-40.942-2.953s-27.709,0.997-40.942,2.953c-34.642-32.851-71.92-50.933-100.212-48.469
	c-11.684,1.017-21.085,5.683-26.474,13.138c-4.507,6.236-9.143,18.846,2.601,56.181c3.447,10.959,7.365,21.113,10.07,27.76
	C50.52,182.509,20.709,236.949,4.434,276.487z M311.301,307.787c-7.348-5.652-10.95-8.552-12.516-12.661
	c-1.953-5.122-1.392-14.033,1.761-28.039c6.981-30.968,32.081-55.699,41.991-56.274c30.734-1.778,59.417,43.905,100.296,129.256
	c-32.531,10.464-53.67,27.687-71.438,44.722C347.733,335.836,326.057,319.138,311.301,307.787z M169.475,210.815
	c9.901,0.573,35.002,25.305,41.981,56.269c3.155,14.009,3.715,22.919,1.762,28.043c-1.566,4.109-5.168,7.008-12.516,12.661
	c-14.756,11.351-36.433,28.049-60.095,77.005c-17.772-17.042-38.916-34.269-71.437-44.725
	C110.05,254.715,138.739,209.002,169.475,210.815z M395.296,67.353c5.231,0.456,9.333,2.08,10.952,4.32
	c0.041,0.065,3.948,6.89-5.8,37.686c-2.452,7.745-5.184,15.134-7.459,20.943c-21.518-13.872-44.903-24.09-69.83-30.528
	C353.75,74.194,379.913,66.025,395.296,67.353z M105.735,71.7c1.638-2.265,5.738-3.89,10.971-4.347
	c15.384-1.334,41.547,6.839,72.137,32.421c-24.929,6.439-48.313,16.656-69.83,30.528c-2.274-5.81-5.008-13.199-7.459-20.944
	C101.805,78.563,105.712,71.738,105.735,71.7z"/>
<path d="M211.195,387.122c0,24.705,20.1,44.805,44.806,44.805s44.806-20.1,44.806-44.805c0-24.712-20.1-44.818-44.806-44.818
	S211.195,362.408,211.195,387.122z M256.001,363.727c12.893,0,23.383,10.495,23.383,23.395c0,12.892-10.49,23.382-23.383,23.382
	c-12.893,0-23.383-10.49-23.383-23.382C232.618,374.222,243.107,363.727,256.001,363.727z"/>
<path d="M161.022,292.271c15.191,0,27.55-12.353,27.55-27.539c0-5.915-4.796-10.711-10.711-10.711
	c-5.916,0-10.711,4.797-10.711,10.711c0,3.372-2.749,6.116-6.127,6.116c-3.372,0-6.116-2.744-6.116-6.116
	c0-5.915-4.796-10.711-10.711-10.711s-10.711,4.797-10.711,10.711C133.483,279.917,145.838,292.271,161.022,292.271z"/>
<path d="M439.133,200.968c2.117,2.626,5.218,3.991,8.347,3.991c2.359,0,4.733-0.775,6.714-2.37
	c4.606-3.713,5.332-10.455,1.62-15.062l-1.096-1.353c-3.737-4.586-10.484-5.272-15.07-1.537c-4.586,3.737-5.273,10.484-1.537,15.07
	L439.133,200.968z"/>
<path d="M378.518,264.732c0-5.915-4.796-10.711-10.711-10.711c-5.916,0-10.711,4.797-10.711,10.711c0,3.372-2.744,6.116-6.116,6.116
	c-3.378,0-6.127-2.744-6.127-6.116c0-5.915-4.796-10.711-10.711-10.711c-5.916,0-10.711,4.797-10.711,10.711
	c0,15.186,12.359,27.539,27.55,27.539C366.165,292.271,378.518,279.917,378.518,264.732z"/>
<g>
</g>
<g>
</g>
<g>
</g>
<g>
</g>
<g>
</g>
<g>
</g>
<g>
</g>
<g>
</g>
<g>
</g>
<g>
</g>
<g>
</g>
<g>
</g>
<g>
</g>
<g>
</g>
<g>
</g>
</svg>
